<svg xmlns="http://www.w3.org/2000/svg" viewBox="0 0 722.66 494.45"><defs><style>.cls-1{fill:#595959;}</style></defs><g id="Layer_2" data-name="Layer 2"><g id="Layer_1-2" data-name="Layer 1"><path class="cls-1" d="M693.27,88.72H658.44a29.39,29.39,0,0,0-29.39,29.39v20.34H612.23L527.41,59.81v-.48h-.52l-.59-.54-.5.54h-122V33.91h95.71V0h-309V33.91h95.71V59.33H164c-12.91,0-23.37,13.16-23.37,29.39v34.75H85.11c-16,0-28.88,17.6-28.88,39.3v38.41H33.91V105.47H0v309H33.91V318.72H56.23v64.69c0,21.7,12.93,39.29,28.88,39.29h61.31l73.12,70.73v.48h.5l.56.54.48-.54H567.86c12.38,0,22.41-13.16,22.41-29.39V414.79h38.78V451a29.39,29.39,0,0,0,29.39,29.39h34.83A29.39,29.39,0,0,0,722.66,451V118.11A29.39,29.39,0,0,0,693.27,88.72ZM328.12,391.23l38-100.73H263.38l68.77-126.24h50.56l-45.4,83.35H430Z"/></g></g></svg>