<svg xmlns="http://www.w3.org/2000/svg" viewBox="0 0 110 96.67"><defs><style>.cls-1{fill:#1d1d1b;}</style></defs><g id="Layer_2" data-name="Layer 2"><g id="Ñëîé_1" data-name="Ñëîé 1"><path class="cls-1" d="M108.26,41.39,93.39,29.07v-21a1.93,1.93,0,0,0-1.93-1.92H79.2a1.92,1.92,0,0,0-1.92,1.92v7.64L60.81,2.09a9.11,9.11,0,0,0-11.62,0L1.74,41.39a4.8,4.8,0,1,0,6.12,7.39L55,9.74l47.14,39a4.8,4.8,0,1,0,6.12-7.39Z"/><path class="cls-1" d="M55.65,17.56a1,1,0,0,0-1.3,0L12.14,52a4.53,4.53,0,0,0-1.68,3.51V92.13A4.55,4.55,0,0,0,15,96.67H40.75a1.91,1.91,0,0,0,1.91-1.92V63.42a1.54,1.54,0,0,1,1.54-1.54H65.8a1.54,1.54,0,0,1,1.54,1.54V94.75a1.91,1.91,0,0,0,1.91,1.92H95a4.55,4.55,0,0,0,4.54-4.54V55.48A4.53,4.53,0,0,0,97.86,52Z"/></g></g></svg>