<svg xmlns="http://www.w3.org/2000/svg" viewBox="0 0 3199.75 3200"><g id="Layer_2" data-name="Layer 2"><g id="Layer_1-2" data-name="Layer 1"><path d="M3121.67,1335.5a538.42,538.42,0,0,1-90.42-17.4c-57.69-16.6-133.3-52.76-196.57-110.23a259.75,259.75,0,0,1-84.39-203.74c4.09-85.47,32-164.6,61.2-217a564.16,564.16,0,0,1,53-78.2c27.3-33.87,24-83-6.77-113.76L2604.52,342.1c-31.42-31.19-81-33.13-115.54-5.33a515.21,515.21,0,0,1-76.4,51.49c-52.49,29.35-131.6,57.41-217.1,61.45a259.5,259.5,0,0,1-203.84-84.79C1934.4,301.63,1898.33,226,1881.9,168.5a535.75,535.75,0,0,1-17.64-90.41C1859.66,33.84,1823.16,0,1778.91,0H1420.84c-44.22,0-80.74,33.84-85.58,78.09a532.07,532.07,0,0,1-17.4,90.41c-16.43,57.53-52.52,133.08-109.81,196.4a259.53,259.53,0,0,1-203.85,84.81c-85.48-4-164.62-32.11-217.26-61.45a541.88,541.88,0,0,1-76.4-51.49C676.21,309,626.42,310.91,595,342.1L468.54,468.77,342.11,595.22c-31.5,31.5-33.33,81.33-5.28,115.93a538.86,538.86,0,0,1,51.43,76c29,52.26,56.92,131.22,61.22,216.53A259.4,259.4,0,0,1,365,1208.06c-63.32,57.36-138.88,93.45-196.68,110a534.05,534.05,0,0,1-90.43,17.4c-44,4.84-77.84,41.11-77.84,85.59v357.82a85.79,85.79,0,0,0,76.46,85.42,560.41,560.41,0,0,1,91.81,17.57c57.8,16.59,133.36,52.68,196.68,110a259.4,259.4,0,0,1,84.53,204.35c-4.3,85.3-32.23,164.26-61.22,216.52a539.62,539.62,0,0,1-52,76.75c-27.71,34.07-26.08,83.27,5,114.32l127.32,127.33L595,2857.9c31.43,31.43,81.22,33.13,115.55,5.32a542.72,542.72,0,0,1,76.4-51.5c52.51-29.19,131.57-57.1,217-61.19a259.74,259.74,0,0,1,203.68,84.3c57.57,63.28,93.82,138.93,110.26,196.65a532.45,532.45,0,0,1,17.4,90.43c4.84,44.25,41.36,78.09,85.58,78.09h358.07c44.25,0,80.75-33.84,85.35-78.09a536.13,536.13,0,0,1,17.64-90.43c16.42-57.61,52.55-133.2,109.85-196.47a259.38,259.38,0,0,1,204.17-84.55c85.36,4.22,164.37,32.1,216.66,61.26a516,516,0,0,1,76.4,51.5c34.56,27.81,84.12,26.11,115.54-5.32l126.69-126.69,126.46-126.44c30.76-30.76,34.06-79.89,6.75-113.76a564.8,564.8,0,0,1-52.93-78.2c-29.2-52.35-57.11-131.47-61.2-216.94a259.75,259.75,0,0,1,84.39-203.74c63.27-57.47,138.88-93.63,196.57-110.23a564,564,0,0,1,90.42-17.42c44.25-4.82,78.08-41.09,78.08-85.57V1421.09C3199.75,1376.61,3165.92,1340.34,3121.67,1335.5ZM1599.76,2349c-413.67,0-749-335.32-749-749s335.31-749,749-749,749,335.33,749,749S2013.43,2349,1599.76,2349Z"/></g></g></svg>